<svg width="40" height="40" viewBox="0 0 40 40" fill="none" xmlns="http://www.w3.org/2000/svg">
<path d="M20.0666 3.33311C10.9666 3.33311 3.54996 10.7498 3.54996 19.8498C3.54996 22.7664 4.31663 25.5998 5.74996 28.0998L3.41663 36.6664L12.1666 34.3664C14.5833 35.6831 17.3 36.3831 20.0666 36.3831C29.1666 36.3831 36.5833 28.9664 36.5833 19.8664C36.5833 15.4498 34.8666 11.2998 31.75 8.18311C30.222 6.63965 28.4019 5.41589 26.396 4.58319C24.3901 3.7505 22.2385 3.32554 20.0666 3.33311ZM20.0833 6.11644C23.75 6.11644 27.1833 7.54977 29.7833 10.1498C31.0593 11.4254 32.071 12.9403 32.7602 14.6077C33.4495 16.2751 33.8028 18.0622 33.8 19.8664C33.8 27.4331 27.6333 33.5831 20.0666 33.5831C17.6 33.5831 15.1833 32.9331 13.0833 31.6664L12.5833 31.3831L7.38329 32.7498L8.76663 27.6831L8.43329 27.1498C7.05653 24.9642 6.32831 22.4328 6.33329 19.8498C6.34996 12.2831 12.5 6.11644 20.0833 6.11644ZM14.2166 12.2164C13.95 12.2164 13.5 12.3164 13.1166 12.7331C12.75 13.1498 11.6666 14.1664 11.6666 16.1831C11.6666 18.2164 13.15 20.1664 13.3333 20.4498C13.5666 20.7331 16.2666 24.8998 20.4166 26.6664C21.4 27.1164 22.1666 27.3664 22.7666 27.5498C23.75 27.8664 24.65 27.8164 25.3666 27.7164C26.1666 27.5998 27.8 26.7164 28.15 25.7498C28.5 24.7831 28.5 23.9664 28.4 23.7831C28.2833 23.6164 28.0166 23.5164 27.6 23.3331C27.1833 23.0998 25.15 22.0998 24.7833 21.9664C24.4 21.8331 24.1666 21.7664 23.85 22.1664C23.5833 22.5831 22.7833 23.5164 22.55 23.7831C22.3 24.0664 22.0666 24.0998 21.6666 23.8998C21.2333 23.6831 19.9 23.2498 18.3333 21.8498C17.1 20.7498 16.2833 19.3998 16.0333 18.9831C15.8333 18.5831 16.0166 18.3331 16.2166 18.1498C16.4 17.9664 16.6666 17.6664 16.8333 17.4164C17.05 17.1831 17.1166 16.9998 17.25 16.7331C17.3833 16.4498 17.3166 16.2164 17.2166 16.0164C17.1166 15.8331 16.2833 13.7664 15.9333 12.9498C15.6 12.1498 15.2666 12.2498 15 12.2331C14.7666 12.2331 14.5 12.2164 14.2166 12.2164Z" fill="#AF9678"/>
</svg>
