<svg width="40" height="40" viewBox="0 0 40 40" fill="none" xmlns="http://www.w3.org/2000/svg">
<path d="M19.6249 5C17.2499 5 11.3749 5.25 8.2499 8.25C5.9999 10.375 5.1249 13.625 4.9999 17.5C4.7499 23.625 6.1249 27.5 8.3749 29.5C8.8749 29.875 10.1249 30.875 12.4999 31.625V34.75C12.4999 34.75 12.4999 36 13.2499 36.25C13.3749 36.25 13.4999 36.375 13.6249 36.375C14.3749 36.375 14.9999 35.5 15.8749 34.625C16.6249 33.75 17.2499 33.125 17.6249 32.5H20.3749C22.7499 32.5 28.6249 32.25 31.7499 29.25C33.9999 27 34.8749 23.75 34.8749 19.625C34.9999 19 34.9999 18.25 34.9999 17.5C34.8749 12.875 33.4999 9.75 31.6249 8C30.8749 7.375 27.6249 5 20.6249 5H19.6249ZM19.3749 7.375H20.4999C27.1249 7.375 29.6249 9.5 29.8749 9.75C31.3749 11 32.2499 13.75 32.3749 17.375V17.875C32.4999 18.625 32.4999 19.25 32.4999 19.625C32.3749 23.375 31.6249 25.875 30.1249 27.5C27.4999 29.875 21.9999 30 20.4999 30H18.1249L16.1249 32.25L14.8749 33.625L14.6249 34C14.3749 34.25 13.9999 34.75 13.7499 34.875V29.25C11.2499 28.625 10.2499 27.75 9.9999 27.5C8.2499 26 7.2499 22.375 7.4999 17.5V16.25C7.7499 13.25 8.4999 11.25 9.7499 9.875C12.3749 7.5 17.8749 7.375 19.3749 7.375ZM19.2499 10.125C18.6249 10.125 18.6249 11 19.2499 11C23.8749 11 27.8749 14.125 27.8749 20C27.8749 20.625 28.7499 20.625 28.7499 20C28.7499 13.625 24.4999 10 19.2499 10.125ZM14.2961 11.2812C14.0129 11.2473 13.7276 11.3254 13.5011 11.4988C12.2511 12.1238 10.9999 13.3763 11.3749 14.7513C11.3749 14.7513 11.6249 15.875 12.9999 18.25C13.7499 19.375 14.3749 20.375 14.9999 21.125C15.6249 22 16.6249 23 17.6249 23.75C19.6249 25.375 22.7499 27 24.1249 27.375C25.3749 27.75 26.7499 26.5 27.3749 25.25C27.6249 24.75 27.4999 24.125 26.9999 23.75C26.2499 23 24.9999 22.125 24.1249 21.625C23.4999 21.25 22.7499 21.5 22.4999 21.875L21.8749 22.625C21.6249 23 20.9999 23 20.9999 23C16.8749 21.875 15.7499 17.625 15.7499 17.625C15.7499 17.625 15.7499 17.125 16.1249 16.75L16.8749 16.125C17.2499 15.875 17.4999 15.125 17.1249 14.5C16.8749 14.125 16.4999 13.375 16.1249 13C15.7499 12.5 14.9999 11.625 14.9999 11.625C14.8102 11.4351 14.5625 11.3141 14.2961 11.2812ZM20.1249 12.625C19.4999 12.5 19.3749 13.5 19.9999 13.5C23.4999 13.75 25.4999 16.125 25.3749 19.125C25.2499 19.75 26.2499 19.75 26.2499 19.125C26.3749 15.625 24.1249 12.75 20.1249 12.625ZM20.4999 15C19.8749 14.875 19.8749 15.875 20.4999 15.875C21.9999 15.875 22.7499 16.75 22.7499 18.25C22.8749 18.875 23.7499 18.875 23.7499 18.25C23.6249 16.25 22.4999 15 20.4999 15Z" fill="#AF9678"/>
</svg>
