<svg width="40" height="40" viewBox="0 0 40 40" fill="none" xmlns="http://www.w3.org/2000/svg">
<path opacity="0.2" d="M13.7501 21.0737L35.0176 5.71397L35.0179 5.71334C34.866 5.64354 34.7013 5.60546 34.5342 5.60143C34.367 5.5974 34.2007 5.62751 34.0456 5.6899L5.20855 17.0187C4.95727 17.1174 4.74472 17.2949 4.6027 17.5245C4.46067 17.7541 4.39681 18.0235 4.42066 18.2925C4.44451 18.5614 4.55479 18.8154 4.73501 19.0164C4.91523 19.2174 5.15569 19.3547 5.42042 19.4077L13.7501 21.0737Z" fill="#AF9678"/>
<path opacity="0.2" d="M20.7667 27.2488L15.8839 32.1316C15.7091 32.3064 15.4864 32.4254 15.244 32.4737C15.0015 32.5219 14.7502 32.4972 14.5218 32.4026C14.2934 32.308 14.0982 32.1479 13.9608 31.9423C13.8234 31.7368 13.7501 31.4952 13.75 31.248V21.0742L20.7667 27.2488Z" fill="#AF9678"/>
<path d="M36.1338 4.95888C35.7893 4.66147 35.3701 4.46397 34.9214 4.38776C34.4728 4.31155 34.0118 4.35954 33.5885 4.52654L4.75145 15.8554C4.24889 16.053 3.82379 16.4079 3.53975 16.8671C3.2557 17.3263 3.12797 17.8652 3.17567 18.403C3.22337 18.9409 3.44394 19.4489 3.80437 19.851C4.1648 20.253 4.64573 20.5276 5.1752 20.6336L12.5 22.0989V31.2478C12.4996 31.7424 12.646 32.2261 12.9206 32.6375C13.1952 33.0489 13.5857 33.3695 14.0427 33.5588C14.4997 33.7481 15.0026 33.7975 15.4877 33.7008C15.9727 33.6041 16.4182 33.3657 16.7677 33.0156L20.8214 28.962L26.9739 34.3761C27.4269 34.7784 28.0114 35.0009 28.6172 35.0017C28.8806 35.0014 29.1422 34.9599 29.3927 34.8787C29.8059 34.7477 30.1775 34.5106 30.4705 34.1911C30.7634 33.8715 30.9675 33.4808 31.0622 33.0578L36.9394 7.41217C37.0418 6.96868 37.0208 6.50564 36.8788 6.07322C36.7368 5.6408 36.4792 5.25549 36.1338 4.95904V4.95888ZM13.4604 19.7412L5.66582 18.1823L27.491 9.60795L13.4604 19.7412ZM15 31.2465V23.839L18.9407 27.3067L15 31.2465ZM28.6254 32.4992L15.7516 21.1701L34.2899 7.78154L28.6254 32.4992Z" fill="#AF9678"/>
</svg>
