<svg width="26" height="26" viewBox="0 0 26 26" fill="none" xmlns="http://www.w3.org/2000/svg">
<path d="M12.7562 3.25C11.2124 3.25 7.39368 3.4125 5.36244 5.3625C3.89994 6.74375 3.33119 8.85625 3.24994 11.375C3.08744 15.3563 3.98118 17.875 5.44369 19.175C5.76868 19.4188 6.58118 20.0688 8.12494 20.5563V22.5875C8.12494 22.5875 8.12494 23.4 8.61244 23.5625C8.69369 23.5625 8.77493 23.6438 8.85618 23.6438C9.34368 23.6438 9.74993 23.075 10.3187 22.5063C10.8062 21.9375 11.2124 21.5313 11.4562 21.125H13.2437C14.7874 21.125 18.6062 20.9625 20.6374 19.0125C22.0999 17.55 22.6687 15.4375 22.6687 12.7563C22.7499 12.35 22.7499 11.8625 22.7499 11.375C22.6687 8.36875 21.7749 6.3375 20.5562 5.2C20.0687 4.79375 17.9562 3.25 13.4062 3.25H12.7562ZM12.5937 4.79375H13.3249C17.6312 4.79375 19.2562 6.175 19.4187 6.3375C20.3937 7.15 20.9624 8.9375 21.0437 11.2937V11.6188C21.1249 12.1063 21.1249 12.5125 21.1249 12.7563C21.0437 15.1938 20.5562 16.8188 19.5812 17.875C17.8749 19.4188 14.2999 19.5 13.3249 19.5H11.7812L10.4812 20.9625L9.66868 21.8563L9.50618 22.1C9.34368 22.2625 9.09994 22.5875 8.93744 22.6688V19.0125C7.31244 18.6063 6.66243 18.0375 6.49993 17.875C5.36243 16.9 4.71244 14.5438 4.87494 11.375V10.5625C5.03744 8.6125 5.52494 7.3125 6.33744 6.41875C8.04368 4.875 11.6187 4.79375 12.5937 4.79375ZM12.5124 6.58125C12.1062 6.58125 12.1062 7.15 12.5124 7.15C15.5187 7.15 18.1187 9.18125 18.1187 13C18.1187 13.4063 18.6874 13.4063 18.6874 13C18.6874 8.85625 15.9249 6.5 12.5124 6.58125ZM9.2925 7.33281C9.1084 7.31075 8.92297 7.36148 8.77575 7.47419C7.96325 7.88044 7.14994 8.69456 7.39369 9.58831C7.39369 9.58831 7.55618 10.3188 8.44993 11.8625C8.93743 12.5938 9.34369 13.2438 9.74994 13.7313C10.1562 14.3 10.8062 14.95 11.4562 15.4375C12.7562 16.4938 14.7874 17.55 15.6812 17.7938C16.4937 18.0375 17.3874 17.225 17.7937 16.4125C17.9562 16.0875 17.8749 15.6813 17.5499 15.4375C17.0624 14.95 16.2499 14.3813 15.6812 14.0563C15.2749 13.8125 14.7874 13.975 14.6249 14.2188L14.2187 14.7063C14.0562 14.95 13.6499 14.95 13.6499 14.95C10.9687 14.2188 10.2374 11.4563 10.2374 11.4563C10.2374 11.4563 10.2374 11.1313 10.4812 10.8875L10.9687 10.4813C11.2124 10.3188 11.3749 9.83125 11.1312 9.425C10.9687 9.18125 10.7249 8.69375 10.4812 8.45C10.2374 8.125 9.74994 7.55625 9.74994 7.55625C9.62666 7.43281 9.46564 7.35416 9.2925 7.33281ZM13.0812 8.20625C12.6749 8.125 12.5937 8.775 12.9999 8.775C15.2749 8.9375 16.5749 10.4813 16.4937 12.4313C16.4124 12.8375 17.0624 12.8375 17.0624 12.4313C17.1437 10.1563 15.6812 8.2875 13.0812 8.20625ZM13.3249 9.75C12.9187 9.66875 12.9187 10.3188 13.3249 10.3188C14.2999 10.3188 14.7874 10.8875 14.7874 11.8625C14.8687 12.2688 15.4374 12.2688 15.4374 11.8625C15.3562 10.5625 14.6249 9.75 13.3249 9.75Z" fill="white"/>
</svg>
