<svg width="26" height="26" viewBox="0 0 26 26" fill="none" xmlns="http://www.w3.org/2000/svg">
<path d="M13.0434 2.16657C7.12845 2.16657 2.30761 6.9874 2.30761 12.9024C2.30761 14.7982 2.80595 16.6399 3.73761 18.2649L2.22095 23.8332L7.90845 22.3382C9.47928 23.1941 11.2451 23.6491 13.0434 23.6491C18.9584 23.6491 23.7793 18.8282 23.7793 12.9132C23.7793 10.0424 22.6634 7.3449 20.6376 5.31907C19.6444 4.31582 18.4614 3.52038 17.1576 2.97912C15.8537 2.43787 14.4552 2.16165 13.0434 2.16657ZM13.0543 3.97574C15.4376 3.97574 17.6693 4.9074 19.3593 6.5974C20.1887 7.42654 20.8463 8.41125 21.2943 9.49506C21.7423 10.5789 21.972 11.7405 21.9701 12.9132C21.9701 17.8316 17.9618 21.8291 13.0434 21.8291C11.4401 21.8291 9.86928 21.4066 8.50428 20.5832L8.17928 20.3991L4.79928 21.2874L5.69845 17.9941L5.48178 17.6474C4.58688 16.2268 4.11354 14.5814 4.11678 12.9024C4.12761 7.98407 8.12511 3.97574 13.0543 3.97574ZM9.24095 7.94074C9.06761 7.94074 8.77511 8.00574 8.52595 8.27657C8.28761 8.5474 7.58345 9.20824 7.58345 10.5191C7.58345 11.8407 8.54761 13.1082 8.66678 13.2924C8.81845 13.4766 10.5734 16.1849 13.2709 17.3332C13.9101 17.6257 14.4084 17.7882 14.7984 17.9074C15.4376 18.1132 16.0226 18.0807 16.4884 18.0157C17.0084 17.9399 18.0701 17.3657 18.2976 16.7374C18.5251 16.1091 18.5251 15.5782 18.4601 15.4591C18.3843 15.3507 18.2109 15.2857 17.9401 15.1666C17.6693 15.0149 16.3476 14.3649 16.1093 14.2782C15.8601 14.1916 15.7084 14.1482 15.5026 14.4082C15.3293 14.6791 14.8093 15.2857 14.6576 15.4591C14.4951 15.6432 14.3434 15.6649 14.0834 15.5349C13.8018 15.3941 12.9351 15.1124 11.9168 14.2024C11.1151 13.4874 10.5843 12.6099 10.4218 12.3391C10.2918 12.0791 10.4109 11.9166 10.5409 11.7974C10.6601 11.6782 10.8334 11.4832 10.9418 11.3207C11.0826 11.1691 11.1259 11.0499 11.2126 10.8766C11.2993 10.6924 11.2559 10.5407 11.1909 10.4107C11.1259 10.2916 10.5843 8.94824 10.3568 8.4174C10.1401 7.8974 9.92345 7.9624 9.75011 7.95157C9.59845 7.95157 9.42511 7.94074 9.24095 7.94074Z" fill="white"/>
</svg>
