<svg width="201" height="25" viewBox="0 0 201 25" fill="none" xmlns="http://www.w3.org/2000/svg">
<path d="M27.608 1.98351C26.8827 2.02618 26.36 2.11151 26.04 2.23951C25.72 2.36751 25.496 2.61284 25.368 2.97551C25.2613 3.33818 25.208 3.92484 25.208 4.73551V20.6075C25.208 21.4182 25.2613 22.0048 25.368 22.3675C25.496 22.7302 25.72 22.9755 26.04 23.1035C26.3813 23.2315 26.904 23.3168 27.608 23.3595V23.9995C26.4347 23.9355 24.76 23.9035 22.584 23.9035C20.3013 23.9035 18.616 23.9355 17.528 23.9995V23.3595C18.296 23.3168 18.8507 23.2315 19.192 23.1035C19.5547 22.9755 19.8 22.7302 19.928 22.3675C20.056 22.0048 20.12 21.4182 20.12 20.6075V3.87151L12.408 24.0315H11.896L3.256 3.42351V18.7515C3.256 20.0102 3.32 20.9382 3.448 21.5355C3.576 22.1115 3.85333 22.5382 4.28 22.8155C4.70667 23.0715 5.4 23.2528 6.36 23.3595V23.9995C5.528 23.9355 4.376 23.9035 2.904 23.9035C1.73067 23.9035 0.802667 23.9355 0.12 23.9995V23.3595C0.824 23.2528 1.336 23.0715 1.656 22.8155C1.99733 22.5595 2.22133 22.1542 2.328 21.5995C2.456 21.0448 2.52 20.2235 2.52 19.1355V4.73551C2.52 3.92484 2.456 3.33818 2.328 2.97551C2.22133 2.61284 1.99733 2.36751 1.656 2.23951C1.336 2.11151 0.824 2.02618 0.12 1.98351V1.34351C0.802667 1.40751 1.73067 1.43951 2.904 1.43951C4.86667 1.43951 6.552 1.40751 7.96 1.34351L14.424 16.9275L20.312 1.43951H22.584C24.76 1.43951 26.4347 1.40751 27.608 1.34351V1.98351ZM48.2083 21.3115C48.4856 22.0155 48.8056 22.5275 49.1683 22.8475C49.5309 23.1675 49.8829 23.3382 50.2243 23.3595V23.9995C48.9443 23.9355 47.3229 23.9035 45.3603 23.9035C43.1843 23.9035 41.5629 23.9355 40.4963 23.9995V23.3595C41.3069 23.3168 41.8829 23.2208 42.2243 23.0715C42.5656 22.9008 42.7363 22.6128 42.7363 22.2075C42.7363 21.8235 42.6083 21.3115 42.3523 20.6715L40.4323 15.4235H33.4563L32.6243 17.6315C32.0269 19.1675 31.7283 20.3515 31.7283 21.1835C31.7283 21.9728 31.9629 22.5275 32.4323 22.8475C32.9229 23.1462 33.6376 23.3168 34.5763 23.3595V23.9995C33.1256 23.9355 31.8029 23.9035 30.6083 23.9035C29.6269 23.9035 28.8163 23.9355 28.1762 23.9995V23.3595C29.2216 23.1675 30.1389 22.0475 30.9283 19.9995L38.2243 1.27951C38.4589 1.30084 38.8323 1.31151 39.3443 1.31151C39.8563 1.31151 40.2189 1.30084 40.4323 1.27951L48.2083 21.3115ZM40.2083 14.7835L37.0403 6.14351L33.7123 14.7835H40.2083ZM60.351 1.34351C64.511 1.34351 67.6257 2.29284 69.695 4.19151C71.7643 6.06884 72.799 8.81018 72.799 12.4155C72.799 14.7408 72.287 16.7782 71.263 18.5275C70.2603 20.2555 68.799 21.5995 66.879 22.5595C64.9803 23.5195 62.7083 23.9995 60.063 23.9995L58.079 23.9675C56.8417 23.9248 55.9457 23.9035 55.391 23.9035C53.1937 23.9035 51.551 23.9355 50.463 23.9995V23.3595C51.167 23.3168 51.679 23.2315 51.999 23.1035C52.3403 22.9755 52.5643 22.7302 52.671 22.3675C52.799 22.0048 52.863 21.4182 52.863 20.6075V4.73551C52.863 3.92484 52.799 3.33818 52.671 2.97551C52.5643 2.61284 52.3403 2.36751 51.999 2.23951C51.679 2.11151 51.167 2.02618 50.463 1.98351V1.34351C51.359 1.40751 52.6497 1.43951 54.335 1.43951H55.327L56.607 1.40751C58.3563 1.36484 59.6043 1.34351 60.351 1.34351ZM60.319 1.91951C59.6577 1.91951 59.1563 1.99418 58.815 2.14351C58.495 2.29284 58.271 2.55951 58.143 2.94351C58.015 3.32751 57.951 3.90351 57.951 4.67151V20.6715C57.951 21.4395 58.015 22.0155 58.143 22.3995C58.271 22.7835 58.495 23.0502 58.815 23.1995C59.1563 23.3488 59.6683 23.4235 60.351 23.4235C62.9323 23.4235 64.767 22.5275 65.855 20.7355C66.943 18.9222 67.487 16.1915 67.487 12.5435C67.487 8.89551 66.9217 6.21818 65.791 4.51151C64.6817 2.78351 62.8577 1.91951 60.319 1.91951ZM92.5615 19.1355C92.5615 21.0982 92.6362 22.7195 92.7855 23.9995C91.3348 23.9355 88.8922 23.9035 85.4575 23.9035C80.8068 23.9035 77.3295 23.9355 75.0255 23.9995V23.3595C75.7295 23.3168 76.2415 23.2315 76.5615 23.1035C76.9028 22.9755 77.1268 22.7302 77.2335 22.3675C77.3615 22.0048 77.4255 21.4182 77.4255 20.6075V4.73551C77.4255 3.92484 77.3615 3.33818 77.2335 2.97551C77.1268 2.61284 76.9028 2.36751 76.5615 2.23951C76.2415 2.11151 75.7295 2.02618 75.0255 1.98351V1.34351C77.3295 1.40751 80.8068 1.43951 85.4575 1.43951C88.5935 1.43951 90.8228 1.40751 92.1455 1.34351C91.9962 3.11418 91.9215 4.69285 91.9215 6.07951C91.9215 7.01818 91.9535 7.74351 92.0175 8.25551H91.2815C90.9615 5.97284 90.3855 4.37284 89.5535 3.45551C88.7215 2.53818 87.5482 2.07951 86.0335 2.07951H84.7215C84.0602 2.07951 83.5802 2.13284 83.2815 2.23951C82.9828 2.34618 82.7802 2.55951 82.6735 2.87951C82.5668 3.17818 82.5135 3.66884 82.5135 4.35151V12.2875H83.5375C84.6682 12.2875 85.5215 11.8715 86.0975 11.0395C86.6948 10.2075 87.1108 9.21551 87.3455 8.06351H88.0815C88.0175 8.95951 87.9855 9.96218 87.9855 11.0715V12.6075C87.9855 13.6955 88.0495 15.2102 88.1775 17.1515H87.4415C86.9935 14.3355 85.6922 12.9275 83.5375 12.9275H82.5135V20.9915C82.5135 21.6742 82.5668 22.1755 82.6735 22.4955C82.7802 22.7942 82.9828 22.9968 83.2815 23.1035C83.5802 23.2102 84.0602 23.2635 84.7215 23.2635H86.2895C87.8042 23.2635 89.0202 22.7515 89.9375 21.7275C90.8762 20.6822 91.5375 18.9222 91.9215 16.4475H92.6575C92.5935 17.1515 92.5615 18.0475 92.5615 19.1355ZM103.307 0.927511C104.416 0.927511 105.301 1.03418 105.963 1.24751C106.624 1.46084 107.296 1.77018 107.979 2.17551C108.213 2.30351 108.416 2.41018 108.587 2.49551C108.779 2.58084 108.939 2.62351 109.067 2.62351C109.259 2.62351 109.408 2.51684 109.515 2.30351C109.621 2.06884 109.707 1.70618 109.771 1.21551H110.507C110.4 2.64484 110.347 5.07684 110.347 8.51151H109.611C109.525 7.35951 109.259 6.26084 108.811 5.21551C108.384 4.17018 107.765 3.32751 106.955 2.68751C106.165 2.02618 105.237 1.69551 104.171 1.69551C103.125 1.69551 102.272 1.99418 101.611 2.59151C100.971 3.16751 100.651 3.95684 100.651 4.95951C100.651 5.70618 100.811 6.35684 101.131 6.91151C101.451 7.46618 101.899 7.97818 102.475 8.44751C103.051 8.89551 103.936 9.51418 105.131 10.3035L106.155 11.0075C107.413 11.8395 108.405 12.5648 109.131 13.1835C109.856 13.8022 110.443 14.5275 110.891 15.3595C111.36 16.1702 111.595 17.1195 111.595 18.2075C111.595 19.5728 111.243 20.7248 110.539 21.6635C109.835 22.5808 108.875 23.2742 107.659 23.7435C106.464 24.2128 105.131 24.4475 103.659 24.4475C102.464 24.4475 101.472 24.3408 100.683 24.1275C99.8934 23.9142 99.1681 23.6262 98.5068 23.2635C98.0374 22.9648 97.6748 22.8155 97.4188 22.8155C97.2268 22.8155 97.0774 22.9328 96.9708 23.1675C96.8641 23.3808 96.7788 23.7328 96.7148 24.2235H95.9788C96.0641 22.8795 96.1068 19.9995 96.1068 15.5835H96.8428C96.9921 17.9728 97.5254 19.9142 98.4427 21.4075C99.3601 22.8795 100.768 23.6155 102.667 23.6155C103.819 23.6155 104.768 23.3062 105.515 22.6875C106.261 22.0688 106.635 21.1835 106.635 20.0315C106.635 18.8368 106.251 17.8128 105.483 16.9595C104.715 16.1062 103.499 15.1462 101.835 14.0795C100.555 13.2475 99.5308 12.5222 98.7628 11.9035C97.9948 11.2848 97.3654 10.5595 96.8748 9.72751C96.3841 8.87418 96.1388 7.89284 96.1388 6.78351C96.1388 5.50351 96.4588 4.42618 97.0988 3.55151C97.7601 2.65551 98.6348 1.99418 99.7228 1.56751C100.811 1.14084 102.005 0.927511 103.307 0.927511ZM137.45 1.98351C136.725 2.02618 136.202 2.11151 135.882 2.23951C135.562 2.36751 135.338 2.61284 135.21 2.97551C135.104 3.33818 135.05 3.92484 135.05 4.73551V20.6075C135.05 21.4182 135.104 22.0048 135.21 22.3675C135.338 22.7302 135.562 22.9755 135.882 23.1035C136.202 23.2315 136.725 23.3168 137.45 23.3595V23.9995C136.405 23.9355 134.784 23.9035 132.586 23.9035C130.432 23.9035 128.757 23.9355 127.562 23.9995V23.3595C128.266 23.3168 128.778 23.2315 129.098 23.1035C129.44 22.9755 129.664 22.7302 129.77 22.3675C129.898 22.0048 129.962 21.4182 129.962 20.6075V12.9275H121.482V20.6075C121.482 21.4182 121.536 22.0048 121.642 22.3675C121.77 22.7302 121.994 22.9755 122.314 23.1035C122.634 23.2315 123.157 23.3168 123.882 23.3595V23.9995C122.73 23.9355 121.12 23.9035 119.05 23.9035C116.768 23.9035 115.082 23.9355 113.994 23.9995V23.3595C114.698 23.3168 115.21 23.2315 115.53 23.1035C115.872 22.9755 116.096 22.7302 116.202 22.3675C116.33 22.0048 116.394 21.4182 116.394 20.6075V4.73551C116.394 3.92484 116.33 3.33818 116.202 2.97551C116.096 2.61284 115.872 2.36751 115.53 2.23951C115.21 2.11151 114.698 2.02618 113.994 1.98351V1.34351C115.082 1.40751 116.768 1.43951 119.05 1.43951C121.12 1.43951 122.73 1.40751 123.882 1.34351V1.98351C123.157 2.02618 122.634 2.11151 122.314 2.23951C121.994 2.36751 121.77 2.61284 121.642 2.97551C121.536 3.33818 121.482 3.92484 121.482 4.73551V12.2875H129.962V4.73551C129.962 3.92484 129.898 3.33818 129.77 2.97551C129.664 2.61284 129.44 2.36751 129.098 2.23951C128.778 2.11151 128.266 2.02618 127.562 1.98351V1.34351C128.757 1.40751 130.432 1.43951 132.586 1.43951C134.784 1.43951 136.405 1.40751 137.45 1.34351V1.98351ZM159.364 21.4075C159.684 21.8982 160.015 22.2928 160.356 22.5915C160.697 22.8902 161.135 23.1462 161.668 23.3595V23.9995C160.175 23.9355 158.511 23.9035 156.676 23.9035C155.268 23.9035 153.913 23.9355 152.612 23.9995V23.3595C153.209 23.3168 153.636 23.2528 153.892 23.1675C154.169 23.0822 154.308 22.9328 154.308 22.7195C154.308 22.5488 154.191 22.2822 153.956 21.9195L149.316 14.3995C148.889 13.7168 148.527 13.2582 148.228 13.0235C147.951 12.7888 147.567 12.6502 147.076 12.6075V20.6075C147.076 21.4182 147.129 22.0048 147.236 22.3675C147.364 22.7302 147.588 22.9755 147.908 23.1035C148.228 23.2315 148.751 23.3168 149.476 23.3595V23.9995C148.324 23.9355 146.713 23.9035 144.644 23.9035C142.361 23.9035 140.676 23.9355 139.588 23.9995V23.3595C140.292 23.3168 140.804 23.2315 141.124 23.1035C141.465 22.9755 141.689 22.7302 141.796 22.3675C141.924 22.0048 141.988 21.4182 141.988 20.6075V4.73551C141.988 3.92484 141.924 3.33818 141.796 2.97551C141.689 2.61284 141.465 2.36751 141.124 2.23951C140.804 2.11151 140.292 2.02618 139.588 1.98351V1.34351C140.676 1.40751 142.361 1.43951 144.644 1.43951C146.713 1.43951 148.324 1.40751 149.476 1.34351V1.98351C148.751 2.02618 148.228 2.11151 147.908 2.23951C147.588 2.36751 147.364 2.61284 147.236 2.97551C147.129 3.33818 147.076 3.92484 147.076 4.73551V11.9355C147.929 11.8928 148.708 11.6368 149.412 11.1675C150.116 10.6982 150.916 9.95151 151.812 8.92751L153.7 6.65551C154.681 5.52484 155.172 4.53284 155.172 3.67951C155.172 3.16751 154.959 2.76218 154.532 2.46351C154.127 2.16484 153.551 1.99418 152.804 1.95151V1.34351C154.361 1.40751 155.94 1.43951 157.54 1.43951C158.777 1.43951 159.78 1.40751 160.548 1.34351V1.95151C158.841 2.35684 157.295 3.38084 155.908 5.02351L151.908 9.79151L159.364 21.4075ZM180.896 21.3115C181.173 22.0155 181.493 22.5275 181.856 22.8475C182.218 23.1675 182.57 23.3382 182.912 23.3595V23.9995C181.632 23.9355 180.01 23.9035 178.048 23.9035C175.872 23.9035 174.25 23.9355 173.184 23.9995V23.3595C173.994 23.3168 174.57 23.2208 174.912 23.0715C175.253 22.9008 175.424 22.6128 175.424 22.2075C175.424 21.8235 175.296 21.3115 175.04 20.6715L173.12 15.4235H166.144L165.312 17.6315C164.714 19.1675 164.416 20.3515 164.416 21.1835C164.416 21.9728 164.65 22.5275 165.12 22.8475C165.61 23.1462 166.325 23.3168 167.264 23.3595V23.9995C165.813 23.9355 164.49 23.9035 163.296 23.9035C162.314 23.9035 161.504 23.9355 160.864 23.9995V23.3595C161.909 23.1675 162.826 22.0475 163.616 19.9995L170.912 1.27951C171.146 1.30084 171.52 1.31151 172.032 1.31151C172.544 1.31151 172.906 1.30084 173.12 1.27951L180.896 21.3115ZM172.896 14.7835L169.728 6.14351L166.4 14.7835H172.896ZM200.271 1.34351C200.121 3.15684 200.047 4.77818 200.047 6.20751C200.047 7.21018 200.079 8.02084 200.142 8.63951H199.407C198.98 6.22884 198.34 4.53284 197.487 3.55151C196.633 2.57018 195.439 2.07951 193.903 2.07951H192.847C192.185 2.07951 191.705 2.13284 191.407 2.23951C191.108 2.34618 190.905 2.55951 190.799 2.87951C190.692 3.17818 190.639 3.66884 190.639 4.35151V12.4155H191.759C192.889 12.4155 193.743 11.9995 194.319 11.1675C194.916 10.3355 195.332 9.34351 195.567 8.19151H196.303C196.239 9.08751 196.207 10.0902 196.207 11.1995V12.7355C196.207 13.8235 196.271 15.3382 196.399 17.2795H195.663C195.215 14.4635 193.913 13.0555 191.759 13.0555H190.639V20.4155C190.639 21.2688 190.724 21.8982 190.895 22.3035C191.087 22.6875 191.407 22.9435 191.855 23.0715C192.324 23.1995 193.06 23.2742 194.063 23.2955V23.9995C191.439 23.9355 189.487 23.9035 188.207 23.9035C187.14 23.9035 185.796 23.9248 184.174 23.9675L183.151 23.9995V23.3595C183.855 23.3168 184.367 23.2315 184.687 23.1035C185.028 22.9755 185.252 22.7302 185.359 22.3675C185.487 22.0048 185.551 21.4182 185.551 20.6075V4.73551C185.551 3.92484 185.487 3.33818 185.359 2.97551C185.252 2.61284 185.028 2.36751 184.687 2.23951C184.367 2.11151 183.855 2.02618 183.151 1.98351V1.34351C185.455 1.40751 188.932 1.43951 193.583 1.43951C196.719 1.43951 198.948 1.40751 200.271 1.34351Z" fill="white"/>
</svg>
